<svg width="141" height="34" viewBox="0 0 141 34" fill="none" xmlns="http://www.w3.org/2000/svg">
<g clip-path="url(#clip0_1182_50492)">
<path d="M37.1589 9.57141L27.1146 9.54558C25.5488 9.53962 24.3964 10.241 23.6453 11.6021C23.4247 12.0333 22.3179 14.3482 21.9682 15.0814C21.9027 15.2185 21.7656 15.3059 21.6165 15.3059C21.5967 15.3059 21.5748 15.3059 21.5529 15.3059C21.3761 15.3059 21.2211 15.1887 21.1754 15.0158C21.0304 14.4853 20.8794 13.5434 20.8118 13.1301C20.5992 11.8227 21.2251 10.9365 22.3497 11.2504C22.459 11.2802 22.5922 11.3478 22.7153 11.4054C22.7829 11.4352 22.8564 11.3836 22.8544 11.31C22.8405 10.9603 22.767 10.4636 22.7054 10.1516C22.5365 9.29919 21.5887 8.87993 20.162 9.36874C19.099 9.73435 17.877 9.68269 16.8318 9.0846C16.7086 9.01505 16.6093 8.98922 16.4821 9.08062C16.3371 9.18395 16.4185 9.37867 16.4185 9.37867C16.7186 9.89132 16.8437 10.1655 16.7762 10.8292C16.6729 11.8624 16.2993 14.1197 16.1682 14.9701C16.1384 15.1648 15.9734 15.3059 15.7787 15.3059C15.7767 15.3059 15.7727 15.3059 15.7708 15.3059C15.6197 15.3059 15.4826 15.2185 15.4171 15.0794C15.0693 14.3422 13.9705 12.0214 13.75 11.5922C12.9989 10.2291 11.8464 9.52969 10.2807 9.53565L0.236336 9.56148C0.0813495 9.56148 -0.0319099 9.70852 0.00584326 9.85953C0.0972456 10.2311 0.274089 10.9325 0.538361 11.8505C1.14639 13.9567 2.9645 15.4728 5.12239 15.6755C7.53064 15.902 10.0979 16.2855 10.7854 16.6054C10.847 16.6352 10.8271 16.7286 10.7575 16.7286H2.53729C2.36839 16.7286 2.25315 16.9015 2.31673 17.0585C2.65055 17.897 3.02013 18.7554 3.42548 19.6058C4.40905 21.6703 6.59476 22.8546 8.83809 22.5565C10.5489 22.33 12.4346 22.0498 13.6447 21.8809C13.7857 21.8611 13.899 21.9982 13.8533 22.1353C13.6089 22.8705 12.8598 24.8157 12.2001 26.5067C11.5424 28.1917 12.1862 30.1131 13.7182 31.047C13.8533 31.1304 13.9825 31.2079 14.0997 31.2795C14.1335 31.3013 14.1672 31.3232 14.201 31.345C14.3322 31.4305 14.507 31.3729 14.5646 31.2258C14.968 30.1906 15.574 28.6248 15.8761 27.8658C15.9178 27.7585 15.9854 27.6671 16.0668 27.5956C16.19 27.4883 16.3768 27.5956 16.351 27.7565L15.6496 32.0961C15.6376 32.1677 15.6734 32.2412 15.737 32.275C17.5114 33.2426 18.7056 33.6102 18.7056 33.6102C18.7056 33.6102 19.8898 33.2526 21.6662 32.2849C21.7298 32.2511 21.7656 32.1776 21.7536 32.1061L21.0482 27.7426C21.0224 27.5816 21.2092 27.4763 21.3304 27.5816C21.4139 27.6532 21.4814 27.7466 21.5251 27.8539C21.7993 28.5394 22.5941 30.5781 22.8644 31.2675C22.9121 31.3888 23.0551 31.4384 23.1644 31.3709C23.3174 31.2775 23.4923 31.1702 23.683 31.0549C25.217 30.121 25.8588 28.1996 25.1991 26.5146C24.5374 24.8217 23.7883 22.8784 23.5459 22.1432C23.5002 22.0061 23.6135 21.869 23.7546 21.8889C24.9646 22.0578 26.8523 22.3379 28.5631 22.5645C30.8064 22.8625 32.9921 21.6782 33.9757 19.6137C34.3811 18.7653 34.7506 17.9049 35.0845 17.0664C35.1481 16.9074 35.0308 16.7366 34.8639 16.7366H26.6397C26.5701 16.7366 26.5503 16.6412 26.6119 16.6134C27.3014 16.2935 29.8666 15.91 32.2748 15.6834C34.4327 15.4808 36.2508 13.9647 36.8589 11.8585C37.1231 10.9405 37.302 10.239 37.3914 9.86748C37.4291 9.71646 37.3159 9.56943 37.1609 9.56943L37.1589 9.57141Z" fill="white"/>
<path d="M61.0269 17.279C60.9852 11.0259 59.2744 8.23415 55.7593 8.23415C52.4609 8.23415 50.4143 10.6047 50.3527 14.7774C50.3527 14.8827 50.2673 14.9681 50.1619 14.9681H50.0209C49.9136 14.9681 49.8281 14.8827 49.8281 14.7754V8.75872C49.8281 8.66136 49.7487 8.58188 49.6513 8.58188H40.8926C40.7972 8.58188 40.7217 8.65937 40.7217 8.75276V25.7755C40.7217 25.9145 40.8349 26.0258 40.972 26.0258H50.8673C51.0064 26.0258 51.1177 25.9126 51.1177 25.7755V18.3142C51.1177 17.8413 51.1813 17.3684 51.3263 16.9194C51.5211 16.3193 51.8867 15.6636 52.5483 15.6636C53.359 15.6636 53.5816 16.7425 53.5955 17.4121C53.5955 17.4499 53.6253 17.4777 53.6631 17.4777L60.7924 17.5115C60.9216 17.5115 61.0269 17.4062 61.0269 17.277V17.279Z" fill="white"/>
<path d="M66.4891 26.3775C70.2724 26.3775 72.1262 24.7422 72.1143 22.7393C72.1143 22.63 72.1978 22.5406 72.3071 22.5406H72.4521C72.5535 22.5406 72.6369 22.6181 72.6449 22.7175L72.8972 25.8788C72.9032 25.9642 72.9747 26.0298 73.0601 26.0298H82.3693C82.4746 26.0298 82.5521 25.9324 82.5282 25.8311L78.7271 8.71303C78.7112 8.63752 78.6436 8.58586 78.5681 8.58586H62.4634C62.374 8.58586 62.3005 8.65938 62.3005 8.7488V15.3655C62.3005 15.4549 62.374 15.5285 62.4634 15.5285H68.6311C68.7384 15.5285 68.8238 15.6159 68.8238 15.7212V15.8603C68.8238 15.9656 68.7364 16.051 68.6311 16.053C63.6477 16.0967 60.4844 17.8095 60.4844 21.5988C60.4844 24.6349 62.7873 26.3795 66.4851 26.3795L66.4891 26.3775ZM71.3434 15.757C71.401 15.6755 71.5282 15.7093 71.5361 15.8086L71.8282 19.3654C71.862 19.6793 71.8977 21.3186 70.9559 21.3186C70.4333 21.3186 70.1532 20.7245 70.1532 19.5382C70.1532 17.6903 70.9797 16.2855 71.3434 15.755V15.757Z" fill="white"/>
<path d="M107.988 7.5705C110.883 7.5705 113.186 6.27894 113.186 3.80313C113.186 1.32732 110.883 0 107.988 0C105.093 0 102.79 1.32533 102.79 3.80313C102.79 6.28093 105.093 7.5705 107.988 7.5705Z" fill="white"/>
<path d="M91.0725 26.3775C93.2642 26.3775 95.9049 25.998 97.9555 25.074C98.033 25.0403 98.0807 24.9628 98.0807 24.8793V18.04C98.0807 17.9029 97.9277 17.8195 97.8144 17.899C96.8904 18.5348 95.4042 19.4369 94.3888 19.4369C93.5523 19.4369 92.9582 18.9143 92.9582 17.5175V14.6383C92.9582 14.5926 92.9919 14.5528 93.0356 14.5469L102.587 13.0427C102.694 13.0268 102.79 13.1083 102.79 13.2156V18.8825C102.79 18.9958 102.698 19.0852 102.587 19.0852H99.9802C99.8948 19.0852 99.8253 19.1548 99.8253 19.2402V25.8728C99.8253 25.9583 99.8948 26.0278 99.9802 26.0278H115.954C116.083 26.0278 116.188 25.9225 116.188 25.7933V19.3197C116.188 19.1905 116.083 19.0852 115.954 19.0852H113.393C113.279 19.0852 113.19 18.9938 113.19 18.8825V7.64203C113.19 7.52678 113.085 7.43935 112.971 7.46121L93.0674 11.1988C93.0098 11.2087 92.9582 11.165 92.9582 11.1074V3.16133C92.9582 3.07191 92.8866 3.00038 92.7972 3.00038H90.8817C90.7566 3.00038 90.6353 3.03813 90.532 3.10768L82.6714 8.48253C82.58 8.54413 82.5264 8.64746 82.5264 8.75674V17.3048C82.5264 23.2023 85.4214 26.3755 91.0745 26.3755L91.0725 26.3775Z" fill="white"/>
<path d="M125.106 26.8206C126.433 27.061 127.77 27.0392 128.47 26.8544C130.127 26.4173 131.55 25.3542 132.476 23.856C133.402 22.3598 133.718 20.6112 133.368 18.9342C133.33 18.7514 133.284 18.5745 133.233 18.3977C133.181 18.2248 132.933 18.2348 132.893 18.4096C132.484 20.194 130.894 21.5272 128.99 21.5431C126.733 21.563 124.885 19.7032 124.915 17.4479C124.915 17.3267 124.923 17.2075 124.935 17.0883C125.227 12.8738 128.939 9.52969 133.461 9.52969C135.208 9.52969 136.835 10.0284 138.19 10.8848C138.345 10.9941 138.508 10.8987 138.325 10.712C136.142 8.61169 132.81 7.55659 129.04 7.55659C122.378 7.55659 117.078 10.8491 117.078 17.3982C117.078 22.5883 120.409 25.7337 125.108 26.8147L125.106 26.8206Z" fill="white"/>
<path d="M140.992 16.9512C140.829 15.298 140.07 13.764 138.812 12.5738C137.384 11.2226 135.482 10.4775 133.461 10.4775C131.44 10.4775 129.539 11.2226 128.11 12.5738C127.818 12.85 127.552 13.146 127.315 13.458C127.208 13.5991 127.353 13.7918 127.518 13.7282C127.965 13.5593 128.448 13.4659 128.955 13.4659C129.692 13.4659 130.383 13.6627 130.977 14.0084L131.164 14.1217C134.55 16.216 135.512 20.8139 133.31 24.3746C132.629 25.4774 131.758 26.3139 130.771 26.8941C130.638 26.9716 130.703 27.1763 130.856 27.1604C136.638 26.606 141 23.3434 141 17.4042C141 17.2512 140.998 17.1002 140.992 16.9512Z" fill="white"/>
</g>
<defs>
<clipPath id="clip0_1182_50492">
<rect width="141" height="33.6142" fill="white"/>
</clipPath>
</defs>
</svg>
